<?xml version="1.0" encoding="utf-8"?>
<svg viewBox="0 0 500 500" xmlns="http://www.w3.org/2000/svg">
  <g transform="matrix(1, 0, 0, 1, 46.746499, 20.561035)"/>
  <g transform="matrix(1, 0, 0, 1, 46.746499, 20.561035)"/>
  <g transform="matrix(1, 0, 0, 1, 46.746499, 20.561035)"/>
  <g transform="matrix(1, 0, 0, 1, 46.746499, 20.561035)"/>
  <g transform="matrix(1, 0, 0, 1, 46.746499, 20.561035)"/>
  <g transform="matrix(1, 0, 0, 1, 46.746499, 20.561035)"/>
  <g transform="matrix(1, 0, 0, 1, 46.746499, 20.561035)"/>
  <g transform="matrix(1, 0, 0, 1, 46.746499, 20.561035)"/>
  <g transform="matrix(1, 0, 0, 1, 46.746499, 20.561035)"/>
  <g transform="matrix(1, 0, 0, 1, 46.746499, 20.561035)"/>
  <g transform="matrix(1, 0, 0, 1, 46.746499, 20.561035)"/>
  <g transform="matrix(1, 0, 0, 1, 46.746499, 20.561035)"/>
  <g transform="matrix(1, 0, 0, 1, 46.746499, 20.561035)"/>
  <g transform="matrix(1, 0, 0, 1, 46.746499, 20.561035)"/>
  <g transform="matrix(1, 0, 0, 1, 46.746499, 20.561035)"/>
  <g id="color" transform="matrix(5.265163, 0, 0, 5.265163, -25.247549, -21.491236)" style="">
    <circle cx="21" cy="17" r="3" stroke="none" style="fill: rgb(185, 189, 203);"/>
    <circle cx="55.9917" cy="26.3237" r="3" stroke="none" style="fill: rgb(185, 189, 203);"/>
    <circle cx="29.9928" cy="47.0078" r="3" stroke="none" style="fill: rgb(185, 189, 203);"/>
  </g>
  <g id="hair" transform="matrix(5.265163, 0, 0, 5.265163, -25.247549, -21.491236)" style=""/>
  <g id="skin" transform="matrix(5.265163, 0, 0, 5.265163, -25.247549, -21.491236)" style=""/>
  <g id="skin-shadow" transform="matrix(5.265163, 0, 0, 5.265163, -25.247549, -21.491236)" style=""/>
  <g id="line" transform="matrix(5.265163, 0, 0, 5.265163, -25.247549, -21.491236)" style="">
    <circle cx="21" cy="17" r="3" fill="none" stroke-miterlimit="10" stroke-width="2" style="stroke: rgb(185, 189, 203);"/>
    <path fill="none" stroke-linecap="round" stroke-linejoin="round" stroke-miterlimit="10" stroke-width="2" d="M15,30c0,0,1-4.3112,3-5.3112s4-1,6,0S27,30,27,30" style="stroke: rgb(185, 189, 203);"/>
    <circle cx="55.9917" cy="26.3237" r="3" fill="none" stroke-miterlimit="10" stroke-width="2" style="stroke: rgb(185, 189, 203);"/>
    <path fill="none" stroke-linecap="round" stroke-linejoin="round" stroke-miterlimit="10" stroke-width="2" d="M49.9917,39.3237c0,0,1-4.3112,3-5.3112s4-1,6,0s3,5.3112,3,5.3112" style="stroke: rgb(185, 189, 203);"/>
    <circle cx="29.9928" cy="47.0078" r="3" fill="none" stroke-miterlimit="10" stroke-width="2" style="stroke: rgb(185, 189, 203);"/>
    <path fill="none" stroke-linecap="round" stroke-linejoin="round" stroke-miterlimit="10" stroke-width="2" d="M23.9928,60.0078c0,0,1-4.3112,3-5.3112s4-1,6,0s3,5.3112,3,5.3112" style="stroke: rgb(185, 189, 203);"/>
    <path fill="none" stroke-linecap="round" stroke-linejoin="round" stroke-miterlimit="10" stroke-width="2" d="M52.552,20.1356C48.333,15.1588,42.0354,12,35,12c-2.7693,0-5.4243,0.4894-7.8832,1.3865" style="stroke: rgb(185, 189, 203);"/>
    <path fill="none" stroke-linecap="round" stroke-linejoin="round" stroke-miterlimit="10" stroke-width="2" d="M39.4332,57.5731c8.2126-1.6036,14.8614-7.5774,17.4267-15.4016" style="stroke: rgb(185, 189, 203);"/>
    <path fill="none" stroke-linecap="round" stroke-linejoin="round" stroke-miterlimit="10" stroke-width="2" d="M12.0868,32.9884C12.0293,33.6513,12,34.3222,12,35c0,7.9743,4.0582,15.0008,10.2221,19.1268" style="stroke: rgb(185, 189, 203);"/>
  </g>
</svg>