<?xml version="1.0" encoding="utf-8"?>
<svg viewBox="0 0 500 500" xmlns="http://www.w3.org/2000/svg">
  <g transform="matrix(1, 0, 0, 1, 46.746499, 20.561035)"/>
  <g transform="matrix(1, 0, 0, 1, 46.746499, 20.561035)"/>
  <g transform="matrix(1, 0, 0, 1, 46.746499, 20.561035)"/>
  <g transform="matrix(1, 0, 0, 1, 46.746499, 20.561035)"/>
  <g transform="matrix(1, 0, 0, 1, 46.746499, 20.561035)"/>
  <g transform="matrix(1, 0, 0, 1, 46.746499, 20.561035)"/>
  <g transform="matrix(1, 0, 0, 1, 46.746499, 20.561035)"/>
  <g transform="matrix(1, 0, 0, 1, 46.746499, 20.561035)"/>
  <g transform="matrix(1, 0, 0, 1, 46.746499, 20.561035)"/>
  <g transform="matrix(1, 0, 0, 1, 46.746499, 20.561035)"/>
  <g transform="matrix(1, 0, 0, 1, 46.746499, 20.561035)"/>
  <g transform="matrix(1, 0, 0, 1, 46.746499, 20.561035)"/>
  <g transform="matrix(1, 0, 0, 1, 46.746499, 20.561035)"/>
  <g transform="matrix(1, 0, 0, 1, 46.746499, 20.561035)"/>
  <g transform="matrix(1, 0, 0, 1, 46.746499, 20.561035)"/>
  <g id="color" transform="matrix(5.265163, 0, 0, 5.265163, -25.247549, -21.491236)" style=""/>
  <g id="hair" transform="matrix(5.265163, 0, 0, 5.265163, -25.247549, -21.491236)" style=""/>
  <g id="skin" transform="matrix(5.265163, 0, 0, 5.265163, -25.247549, -21.491236)" style=""/>
  <g id="skin-shadow" transform="matrix(5.265163, 0, 0, 5.265163, -25.247549, -21.491236)" style=""/>
  <g id="line" transform="matrix(5.265163, 0, 0, 5.265163, -25.247549, -21.491236)" style="">
    <g transform="matrix(0.189928, 0, 0, 0.189928, 19.669963, 9.813719)">
      <path d="M 244.682 100.562 L 221.994 100.562 C 220.406 96.075 218.578 91.669 216.517 87.366 L 232.567 71.316 C 238.425 65.458 238.425 55.961 232.568 50.103 L 190.142 7.676 C 187.329 4.863 183.513 3.282 179.535 3.282 C 175.557 3.282 171.742 4.862 168.929 7.676 L 152.878 23.726 C 148.574 21.665 144.17 19.838 139.682 18.25 L 139.682 -4.438 C 139.682 -12.722 132.966 -19.438 124.682 -19.438 L 64.682 -19.438 C 56.398 -19.438 49.682 -12.722 49.682 -4.438 L 49.682 18.25 C 45.194 19.838 40.789 21.666 36.487 23.726 L 20.436 7.676 C 14.579 1.818 5.081 1.818 -0.777 7.676 L -43.204 50.103 C -49.062 55.961 -49.062 65.458 -43.204 71.316 L -27.154 87.367 C -29.214 91.67 -31.041 96.074 -32.629 100.562 L -55.318 100.562 C -63.602 100.562 -70.318 107.278 -70.318 115.562 L -70.318 175.562 C -70.318 183.846 -63.602 190.562 -55.318 190.562 L -32.629 190.562 C -31.041 195.049 -29.213 199.455 -27.154 203.757 L -43.204 219.808 C -46.017 222.621 -47.598 226.436 -47.598 230.414 C -47.598 234.393 -46.018 238.208 -43.204 241.021 L -0.776 283.447 C 5.082 289.304 14.579 289.304 20.436 283.447 L 36.488 267.398 C 40.792 269.458 45.195 271.286 49.682 272.874 L 49.682 295.562 C 49.682 303.846 56.398 310.562 64.682 310.562 L 124.682 310.562 C 132.966 310.562 139.682 303.846 139.682 295.562 L 139.682 272.873 C 144.17 271.285 148.575 269.458 152.878 267.397 L 168.93 283.447 C 174.787 289.304 184.284 289.305 190.142 283.446 L 232.568 241.02 C 238.426 235.162 238.426 225.665 232.568 219.807 L 216.518 203.757 C 218.579 199.454 220.407 195.049 221.995 190.561 L 244.682 190.561 C 252.966 190.561 259.682 183.845 259.682 175.561 L 259.682 115.561 C 259.682 107.278 252.966 100.562 244.682 100.562 Z M 229.682 160.562 L 210.901 160.562 C 204.055 160.562 198.079 165.196 196.374 171.826 C 193.939 181.295 190.161 190.399 185.147 198.884 C 181.665 204.777 182.614 212.281 187.455 217.121 L 200.749 230.415 L 179.536 251.628 L 166.241 238.335 C 161.402 233.496 153.899 232.546 148.007 236.027 C 139.522 241.039 130.416 244.817 120.944 247.256 C 114.315 248.961 109.682 254.937 109.682 261.782 L 109.682 280.562 L 79.682 280.562 L 79.682 261.782 C 79.682 254.938 75.049 248.962 68.421 247.256 C 58.95 244.818 49.846 241.04 41.359 236.027 C 35.465 232.545 27.964 233.495 23.125 238.335 L 9.83 251.628 L -11.385 230.414 L 1.909 217.12 C 6.75 212.28 7.699 204.777 4.217 198.884 C -0.795 190.401 -4.572 181.296 -7.011 171.823 C -8.716 165.195 -14.693 160.562 -21.537 160.562 L -40.318 160.562 L -40.318 130.562 L -21.537 130.562 C -14.693 130.562 -8.717 125.929 -7.011 119.301 C -4.573 109.827 -0.795 100.722 4.217 92.239 C 7.699 86.346 6.75 78.843 1.909 74.003 L -11.384 60.709 L 9.83 39.496 L 23.124 52.789 C 27.964 57.629 35.468 58.579 41.36 55.097 C 49.844 50.084 58.95 46.307 68.422 43.868 C 75.049 42.163 79.682 36.187 79.682 29.342 L 79.682 10.562 L 109.682 10.562 L 109.682 29.342 C 109.682 36.186 114.315 42.162 120.943 43.868 C 130.417 46.307 139.522 50.084 148.006 55.097 C 153.9 58.578 161.402 57.629 166.242 52.789 L 179.536 39.496 L 200.749 60.709 L 187.455 74.003 C 182.614 78.843 181.665 86.347 185.147 92.24 C 190.161 100.724 193.938 109.828 196.374 119.298 C 198.079 125.927 204.056 130.561 210.901 130.561 L 229.682 130.561 L 229.682 160.562 Z" style="fill: rgb(185, 189, 203);"/>
      <path d="M 116.076 112.956 L 81.682 147.349 L 72.288 137.956 C 66.431 132.098 56.933 132.098 51.075 137.956 C 45.217 143.814 45.217 153.311 51.075 159.169 L 71.075 179.169 C 74.004 182.098 77.843 183.562 81.682 183.562 C 85.521 183.562 89.36 182.098 92.288 179.168 L 137.288 134.168 C 143.146 128.31 143.146 118.813 137.288 112.955 C 131.431 107.097 121.933 107.097 116.076 112.956 Z" style="fill: rgb(185, 189, 203);"/>
    </g>
    <g transform="matrix(0.189928, 0, 0, 0.189928, 19.669963, 9.813719)"/>
    <g transform="matrix(0.189928, 0, 0, 0.189928, 19.669963, 9.813719)"/>
    <g transform="matrix(0.189928, 0, 0, 0.189928, 19.669963, 9.813719)"/>
    <g transform="matrix(0.189928, 0, 0, 0.189928, 19.669963, 9.813719)"/>
    <g transform="matrix(0.189928, 0, 0, 0.189928, 19.669963, 9.813719)"/>
    <g transform="matrix(0.189928, 0, 0, 0.189928, 19.669963, 9.813719)"/>
    <g transform="matrix(0.189928, 0, 0, 0.189928, 19.669963, 9.813719)"/>
    <g transform="matrix(0.189928, 0, 0, 0.189928, 19.669963, 9.813719)"/>
    <g transform="matrix(0.189928, 0, 0, 0.189928, 19.669963, 9.813719)"/>
    <g transform="matrix(0.189928, 0, 0, 0.189928, 19.669963, 9.813719)"/>
    <g transform="matrix(0.189928, 0, 0, 0.189928, 19.669963, 9.813719)"/>
    <g transform="matrix(0.189928, 0, 0, 0.189928, 19.669963, 9.813719)"/>
    <g transform="matrix(0.189928, 0, 0, 0.189928, 19.669963, 9.813719)"/>
    <g transform="matrix(0.189928, 0, 0, 0.189928, 19.669963, 9.813719)"/>
    <g transform="matrix(0.189928, 0, 0, 0.189928, 19.669963, 9.813719)"/>
  </g>
</svg>