<?xml version="1.0" encoding="UTF-8" standalone="no"?>
<!DOCTYPE svg PUBLIC "-//W3C//DTD SVG 1.1//EN" "http://www.w3.org/Graphics/SVG/1.1/DTD/svg11.dtd">
<svg version="1.1" xmlns="http://www.w3.org/2000/svg" xmlns:xlink="http://www.w3.org/1999/xlink" preserveAspectRatio="xMidYMid meet" viewBox="0 0 640 640" width="50" height="50"><defs><path d="M0 320C0 496.72 143.28 640 320 640C496.72 640 640 496.72 640 320C640 143.28 496.72 0 320 0C143.28 0 0 143.28 0 320ZM364 213.33C349.65 213.33 346.67 219.23 346.67 234.08C346.67 236.25 346.67 247.11 346.67 266.67L400 266.67L394.43 320L346.67 320L346.67 506.67L266.67 506.67L266.67 320L213.33 320L213.33 266.67L266.67 266.67C266.67 229.74 266.67 209.22 266.67 205.12C266.67 157.95 291.49 133.33 347.44 133.33C350.94 133.33 368.46 133.33 400 133.33L400 213.33C378.4 213.33 366.4 213.33 364 213.33Z" id="d1aRRaANlL"></path></defs><g><g><g><use xlink:href="#d1aRRaANlL" opacity="1" fill="#b9bdcb" fill-opacity="1"></use><g><use xlink:href="#d1aRRaANlL" opacity="1" fill-opacity="0" stroke="#000000" stroke-width="1" stroke-opacity="0"></use></g></g></g></g></svg>