<?xml version="1.0" encoding="UTF-8" standalone="no"?>
<!DOCTYPE svg PUBLIC "-//W3C//DTD SVG 1.1//EN" "http://www.w3.org/Graphics/SVG/1.1/DTD/svg11.dtd">
<svg version="1.1" xmlns="http://www.w3.org/2000/svg" xmlns:xlink="http://www.w3.org/1999/xlink" preserveAspectRatio="xMidYMid meet" viewBox="0 0 640 640" width="50" height="50"><defs><path d="M0 320C0 496.72 143.28 640 320 640C496.72 640 640 496.72 640 320C640 143.28 496.72 0 320 0C143.28 0 0 143.28 0 320ZM213.33 426.67L213.33 266.67L266.67 266.67L266.67 426.67L213.33 426.67ZM210.67 213.33C210.67 197.01 223.79 183.76 240 183.76C256.21 183.76 269.33 197.01 269.33 213.33C269.33 229.68 256.19 242.91 240 242.91C223.81 242.91 210.67 229.68 210.67 213.33ZM400.05 426.67C400.05 380.89 400.05 355.46 400.05 350.37C400.05 300.21 346.67 304.45 346.67 350.37C346.67 355.46 346.67 380.89 346.67 426.67L293.33 426.67L293.33 266.67L346.67 266.67C346.67 284.15 346.67 293.87 346.67 295.81C369.92 252.72 453.33 249.52 453.33 337.09C453.33 343.06 453.33 372.92 453.33 426.67L400.05 426.67Z" id="k4q66RsrAx"></path></defs><g><g><g><use xlink:href="#k4q66RsrAx" opacity="1" fill="#b9bdcb" fill-opacity="1"></use><g><use xlink:href="#k4q66RsrAx" opacity="1" fill-opacity="0" stroke="#000000" stroke-width="1" stroke-opacity="0"></use></g></g></g></g></svg>