<?xml version="1.0" encoding="utf-8"?>
<svg viewBox="0 0 500 500" xmlns="http://www.w3.org/2000/svg">
  <g transform="matrix(0.648141, 0, 0, 0.648141, 8.956927, 5.995711)" style="">
    <g>
      <g>
        <g>
          <path d="M392.97 123.11C463.71 201.21 457.51 321.83 379.12 392.29C300.74 462.75 179.66 456.54 108.91 378.43C38.16 300.33 44.36 179.71 122.75 109.25C201.14 38.79 322.22 45 392.97 123.11Z" transform="matrix(1, 0, 0, 1, 0, 0)" opacity="1" stroke-width="70" stroke-opacity="1" style="fill: rgb(193, 193, 193); fill-opacity: 0; stroke: rgb(193, 193, 193);"/>
        </g>
      </g>
      <g>
        <path d="M398.42 388.19C405.34 381.97 415.99 382.52 422.24 389.42C460.34 431.48 563.33 545.18 601.43 587.24C607.67 594.12 607.12 604.76 600.21 610.97C592.64 617.78 582.43 626.95 574.85 633.76C567.93 639.99 557.28 639.44 551.03 632.54C512.94 590.48 409.94 476.78 371.84 434.72C365.61 427.83 366.15 417.2 373.06 410.99C380.64 404.18 390.85 395 398.42 388.19Z" transform="matrix(1, 0, 0, 1, 0, 0)" opacity="1" fill-opacity="1" style="stroke: rgb(193, 193, 193); fill: rgb(193, 193, 193);"/>
      </g>
    </g>
  </g>
</svg>