<?xml version="1.0" encoding="UTF-8" standalone="no"?>
<!DOCTYPE svg PUBLIC "-//W3C//DTD SVG 1.1//EN" "http://www.w3.org/Graphics/SVG/1.1/DTD/svg11.dtd">
<svg version="1.1" xmlns="http://www.w3.org/2000/svg" xmlns:xlink="http://www.w3.org/1999/xlink" preserveAspectRatio="xMidYMid meet" viewBox="0 0 640 640" width="50" height="50"><defs><path d="M0 320C0 496.72 143.28 640 320 640C496.72 640 640 496.72 640 320C640 143.28 496.72 0 320 0C143.28 0 0 143.28 0 320ZM264.05 485.04C220.8 485.04 180.56 472.35 146.67 450.61C187.31 455.41 227.87 444.11 260.05 418.91C226.56 418.29 198.27 396.13 188.48 365.71C200.51 368 212.35 367.33 223.09 364.4C186.27 356.99 160.83 323.81 161.65 288.32C172 294.05 183.79 297.49 196.35 297.89C162.24 275.09 152.59 230.05 172.64 195.63C210.4 241.97 266.85 272.45 330.51 275.65C319.33 227.76 355.68 181.6 405.15 181.6C427.15 181.6 447.07 190.91 461.04 205.79C478.48 202.37 494.91 195.97 509.68 187.2C503.95 205.09 491.81 220.08 476 229.57C491.49 227.71 506.27 223.6 519.97 217.49C509.73 232.91 496.77 246.4 481.76 257.2C486.64 364.93 406.29 485.04 264.05 485.04Z" id="c22TjQtrU"></path></defs><g><g><g><use xlink:href="#c22TjQtrU" opacity="1" fill="#b9bdcb" fill-opacity="1"></use><g><use xlink:href="#c22TjQtrU" opacity="1" fill-opacity="0" stroke="#000000" stroke-width="1" stroke-opacity="0"></use></g></g></g></g></svg>